<?xml version="1.0" encoding="UTF-8" standalone="no"?>
<!DOCTYPE svg PUBLIC "-//W3C//DTD SVG 1.1//EN"
 "http://www.w3.org/Graphics/SVG/1.1/DTD/svg11.dtd">
<!-- Generated by graphviz version 2.42.4 (0)
 -->
<!-- Title: G Pages: 1 -->
<svg width="843pt" height="645pt"
 viewBox="0.00 0.00 843.40 645.40" xmlns="http://www.w3.org/2000/svg" xmlns:xlink="http://www.w3.org/1999/xlink">
<g id="graph0" class="graph" transform="scale(1 1) rotate(0) translate(25.2 620.2)">
<title>G</title>
<polygon fill="white" stroke="transparent" points="-25.2,25.2 -25.2,-620.2 818.2,-620.2 818.2,25.2 -25.2,25.2"/>
<text text-anchor="middle" x="230.5" y="-575" font-family="Arial" font-size="20.00">CloudDesk — Monitoring and Alerting Architecture</text>
<g id="clust1" class="cluster">
<title>cluster_sources</title>
<path fill="white" stroke="#cbd5e1" d="M20,-473C20,-473 773,-473 773,-473 779,-473 785,-479 785,-485 785,-485 785,-545 785,-545 785,-551 779,-557 773,-557 773,-557 20,-557 20,-557 14,-557 8,-551 8,-545 8,-545 8,-485 8,-485 8,-479 14,-473 20,-473"/>
<text text-anchor="middle" x="99" y="-537" font-family="Arial" font-size="20.00">Telemetry Sources</text>
</g>
<g id="clust2" class="cluster">
<title>cluster_thresholds</title>
<path fill="white" stroke="#cbd5e1" stroke-dasharray="5,2" d="M527,-77C527,-77 743,-77 743,-77 749,-77 755,-83 755,-89 755,-89 755,-253 755,-253 755,-259 749,-265 743,-265 743,-265 527,-265 527,-265 521,-265 515,-259 515,-253 515,-253 515,-89 515,-89 515,-83 521,-77 527,-77"/>
<text text-anchor="middle" x="635" y="-245" font-family="Arial" font-size="20.00">Current Alarm Conditions</text>
</g>
<!-- lambda -->
<g id="node1" class="node">
<title>lambda</title>
<path fill="#fff7e8" stroke="#ff9900" stroke-width="1.2" d="M441.5,-519C441.5,-519 244.5,-519 244.5,-519 238.5,-519 232.5,-513 232.5,-507 232.5,-507 232.5,-493 232.5,-493 232.5,-487 238.5,-481 244.5,-481 244.5,-481 441.5,-481 441.5,-481 447.5,-481 453.5,-487 453.5,-493 453.5,-493 453.5,-507 453.5,-507 453.5,-513 447.5,-519 441.5,-519"/>
<text text-anchor="middle" x="343" y="-503.2" font-family="Arial" font-size="11.00" fill="#17212b">AWS Lambda</text>
<text text-anchor="middle" x="343" y="-491.2" font-family="Arial" font-size="11.00" fill="#17212b">Invocations • Errors • Duration • Throttles</text>
</g>
<!-- logs -->
<g id="node5" class="node">
<title>logs</title>
<path fill="#ecfdf5" stroke="#059669" stroke-width="1.2" d="M385.5,-423C385.5,-423 300.5,-423 300.5,-423 294.5,-423 288.5,-417 288.5,-411 288.5,-411 288.5,-397 288.5,-397 288.5,-391 294.5,-385 300.5,-385 300.5,-385 385.5,-385 385.5,-385 391.5,-385 397.5,-391 397.5,-397 397.5,-397 397.5,-411 397.5,-411 397.5,-417 391.5,-423 385.5,-423"/>
<text text-anchor="middle" x="343" y="-407.2" font-family="Arial" font-size="11.00" fill="#17212b">CloudWatch Logs</text>
<text text-anchor="middle" x="343" y="-395.2" font-family="Arial" font-size="11.00" fill="#17212b">30&#45;day retention</text>
</g>
<!-- lambda&#45;&gt;logs -->
<g id="edge5" class="edge">
<title>lambda&#45;&gt;logs</title>
<path fill="none" stroke="#64748b" stroke-width="1.3" d="M343,-480.57C343,-480.57 343,-430.57 343,-430.57"/>
<polygon fill="#64748b" stroke="#64748b" stroke-width="1.3" points="345.63,-430.57 343,-423.07 340.38,-430.57 345.63,-430.57"/>
<text text-anchor="middle" x="370.5" y="-449.8" font-family="Arial" font-size="9.00" fill="#475569">Runtime logs</text>
</g>
<!-- metrics -->
<g id="node6" class="node">
<title>metrics</title>
<path fill="#ecfdf5" stroke="#059669" stroke-width="1.2" d="M574.5,-422C574.5,-422 477.5,-422 477.5,-422 471.5,-422 465.5,-416 465.5,-410 465.5,-410 465.5,-398 465.5,-398 465.5,-392 471.5,-386 477.5,-386 477.5,-386 574.5,-386 574.5,-386 580.5,-386 586.5,-392 586.5,-398 586.5,-398 586.5,-410 586.5,-410 586.5,-416 580.5,-422 574.5,-422"/>
<text text-anchor="middle" x="526" y="-401.2" font-family="Arial" font-size="11.00" fill="#17212b">CloudWatch Metrics</text>
</g>
<!-- lambda&#45;&gt;metrics -->
<g id="edge1" class="edge">
<title>lambda&#45;&gt;metrics</title>
<path fill="none" stroke="#64748b" stroke-width="1.3" d="M442.5,-480.91C442.5,-454.49 442.5,-410 442.5,-410 442.5,-410 457.82,-410 457.82,-410"/>
<polygon fill="#64748b" stroke="#64748b" stroke-width="1.3" points="457.82,-412.63 465.32,-410 457.82,-407.38 457.82,-412.63"/>
</g>
<!-- api -->
<g id="node2" class="node">
<title>api</title>
<path fill="#fff3e0" stroke="#ff9900" stroke-width="1.2" d="M614.5,-519C614.5,-519 497.5,-519 497.5,-519 491.5,-519 485.5,-513 485.5,-507 485.5,-507 485.5,-493 485.5,-493 485.5,-487 491.5,-481 497.5,-481 497.5,-481 614.5,-481 614.5,-481 620.5,-481 626.5,-487 626.5,-493 626.5,-493 626.5,-507 626.5,-507 626.5,-513 620.5,-519 614.5,-519"/>
<text text-anchor="middle" x="556" y="-503.2" font-family="Arial" font-size="11.00" fill="#17212b">API Gateway HTTP API</text>
<text text-anchor="middle" x="556" y="-491.2" font-family="Arial" font-size="11.00" fill="#17212b">Request / 5XX metrics</text>
</g>
<!-- api&#45;&gt;metrics -->
<g id="edge2" class="edge">
<title>api&#45;&gt;metrics</title>
<path fill="none" stroke="#64748b" stroke-width="1.3" d="M536,-480.57C536,-480.57 536,-429.6 536,-429.6"/>
<polygon fill="#64748b" stroke="#64748b" stroke-width="1.3" points="538.63,-429.6 536,-422.1 533.38,-429.6 538.63,-429.6"/>
</g>
<!-- rds -->
<g id="node3" class="node">
<title>rds</title>
<path fill="#e8f0ff" stroke="#3b82f6" stroke-width="1.2" d="M765,-519C765,-519 671,-519 671,-519 665,-519 659,-513 659,-507 659,-507 659,-493 659,-493 659,-487 665,-481 671,-481 671,-481 765,-481 765,-481 771,-481 777,-487 777,-493 777,-493 777,-507 777,-507 777,-513 771,-519 765,-519"/>
<text text-anchor="middle" x="718" y="-503.2" font-family="Arial" font-size="11.00" fill="#17212b">RDS PostgreSQL</text>
<text text-anchor="middle" x="718" y="-491.2" font-family="Arial" font-size="11.00" fill="#17212b">CPU • Connections</text>
</g>
<!-- rds&#45;&gt;metrics -->
<g id="edge3" class="edge">
<title>rds&#45;&gt;metrics</title>
<path fill="none" stroke="#64748b" stroke-width="1.3" d="M701.25,-480.57C701.25,-452.52 701.25,-404 701.25,-404 701.25,-404 594.3,-404 594.3,-404"/>
<polygon fill="#64748b" stroke="#64748b" stroke-width="1.3" points="594.3,-401.38 586.8,-404 594.3,-406.63 594.3,-401.38"/>
</g>
<!-- app -->
<g id="node4" class="node">
<title>app</title>
<path fill="#ecfdf5" stroke="#059669" stroke-width="1.2" d="M188,-519C188,-519 28,-519 28,-519 22,-519 16,-513 16,-507 16,-507 16,-493 16,-493 16,-487 22,-481 28,-481 28,-481 188,-481 188,-481 194,-481 200,-487 200,-493 200,-493 200,-507 200,-507 200,-513 194,-519 188,-519"/>
<text text-anchor="middle" x="108" y="-503.2" font-family="Arial" font-size="11.00" fill="#17212b">Structured Application Logs</text>
<text text-anchor="middle" x="108" y="-491.2" font-family="Arial" font-size="11.00" fill="#17212b">Tenant + Membership Operations</text>
</g>
<!-- app&#45;&gt;logs -->
<g id="edge4" class="edge">
<title>app&#45;&gt;logs</title>
<path fill="none" stroke="#64748b" stroke-width="1.3" d="M108,-480.57C108,-452.52 108,-404 108,-404 108,-404 281,-404 281,-404"/>
<polygon fill="#64748b" stroke="#64748b" stroke-width="1.3" points="281,-406.63 288.5,-404 281,-401.38 281,-406.63"/>
</g>
<!-- dashboard -->
<g id="node7" class="node">
<title>dashboard</title>
<path fill="#ecfdf5" stroke="#059669" stroke-width="1.2" d="M419.5,-336C419.5,-336 304.5,-336 304.5,-336 298.5,-336 292.5,-330 292.5,-324 292.5,-324 292.5,-310 292.5,-310 292.5,-304 298.5,-298 304.5,-298 304.5,-298 419.5,-298 419.5,-298 425.5,-298 431.5,-304 431.5,-310 431.5,-310 431.5,-324 431.5,-324 431.5,-330 425.5,-336 419.5,-336"/>
<text text-anchor="middle" x="362" y="-320.2" font-family="Arial" font-size="11.00" fill="#17212b">CloudWatch Dashboard</text>
<text text-anchor="middle" x="362" y="-308.2" font-family="Arial" font-size="11.00" fill="#17212b">clouddesk&#45;dev</text>
</g>
<!-- logs&#45;&gt;dashboard -->
<g id="edge7" class="edge">
<title>logs&#45;&gt;dashboard</title>
<path fill="none" stroke="#64748b" stroke-width="1.3" d="M345,-384.69C345,-384.69 345,-343.75 345,-343.75"/>
<polygon fill="#64748b" stroke="#64748b" stroke-width="1.3" points="347.63,-343.75 345,-336.25 342.38,-343.75 347.63,-343.75"/>
</g>
<!-- metrics&#45;&gt;dashboard -->
<g id="edge6" class="edge">
<title>metrics&#45;&gt;dashboard</title>
<path fill="none" stroke="#64748b" stroke-width="1.3" d="M465.36,-398C439.2,-398 414.5,-398 414.5,-398 414.5,-398 414.5,-343.7 414.5,-343.7"/>
<polygon fill="#64748b" stroke="#64748b" stroke-width="1.3" points="417.13,-343.7 414.5,-336.2 411.88,-343.7 417.13,-343.7"/>
</g>
<!-- alarms -->
<g id="node8" class="node">
<title>alarms</title>
<path fill="#fffbea" stroke="#eab308" stroke-width="1.2" d="M573.5,-335C573.5,-335 478.5,-335 478.5,-335 472.5,-335 466.5,-329 466.5,-323 466.5,-323 466.5,-311 466.5,-311 466.5,-305 472.5,-299 478.5,-299 478.5,-299 573.5,-299 573.5,-299 579.5,-299 585.5,-305 585.5,-311 585.5,-311 585.5,-323 585.5,-323 585.5,-329 579.5,-335 573.5,-335"/>
<text text-anchor="middle" x="526" y="-314.2" font-family="Arial" font-size="11.00" fill="#17212b">CloudWatch Alarms</text>
</g>
<!-- metrics&#45;&gt;alarms -->
<g id="edge8" class="edge">
<title>metrics&#45;&gt;alarms</title>
<path fill="none" stroke="#64748b" stroke-width="1.3" d="M526,-385.97C526,-385.97 526,-342.5 526,-342.5"/>
<polygon fill="#64748b" stroke="#64748b" stroke-width="1.3" points="528.63,-342.5 526,-335 523.38,-342.5 528.63,-342.5"/>
</g>
<!-- sns -->
<g id="node9" class="node">
<title>sns</title>
<path fill="#ecfeff" stroke="#0891b2" stroke-width="1.2" d="M482,-175C482,-175 376,-175 376,-175 370,-175 364,-169 364,-163 364,-163 364,-149 364,-149 364,-143 370,-137 376,-137 376,-137 482,-137 482,-137 488,-137 494,-143 494,-149 494,-149 494,-163 494,-163 494,-169 488,-175 482,-175"/>
<text text-anchor="middle" x="429" y="-159.2" font-family="Arial" font-size="11.00" fill="#17212b">SNS Topic</text>
<text text-anchor="middle" x="429" y="-147.2" font-family="Arial" font-size="11.00" fill="#17212b">clouddesk&#45;dev&#45;alarms</text>
</g>
<!-- alarms&#45;&gt;sns -->
<g id="edge9" class="edge">
<title>alarms&#45;&gt;sns</title>
<path fill="none" stroke="#64748b" stroke-width="1.3" d="M480.25,-298.84C480.25,-298.84 480.25,-182.59 480.25,-182.59"/>
<polygon fill="#64748b" stroke="#64748b" stroke-width="1.3" points="482.88,-182.59 480.25,-175.09 477.63,-182.59 482.88,-182.59"/>
</g>
<!-- table -->
<g id="node11" class="node">
<title>table</title>
<path fill="#f7f8fa" stroke="transparent" stroke-width="1.2" d="M731.5,-227C731.5,-227 538.5,-227 538.5,-227 532.5,-227 526.5,-221 526.5,-215 526.5,-215 526.5,-97 526.5,-97 526.5,-91 532.5,-85 538.5,-85 538.5,-85 731.5,-85 731.5,-85 737.5,-85 743.5,-91 743.5,-97 743.5,-97 743.5,-215 743.5,-215 743.5,-221 737.5,-227 731.5,-227"/>
<polygon fill="#232f3e" stroke="transparent" points="528,-198 528,-226 632,-226 632,-198 528,-198"/>
<polygon fill="none" stroke="#5b6573" points="528,-198 528,-226 632,-226 632,-198 528,-198"/>
<text text-anchor="start" x="563" y="-210.2" font-family="Arial" font-weight="bold" font-size="11.00" fill="white">Signal</text>
<polygon fill="#232f3e" stroke="transparent" points="632,-198 632,-226 743,-226 743,-198 632,-198"/>
<polygon fill="none" stroke="#5b6573" points="632,-198 632,-226 743,-226 743,-198 632,-198"/>
<text text-anchor="start" x="661.5" y="-210.2" font-family="Arial" font-weight="bold" font-size="11.00" fill="white">Condition</text>
<polygon fill="none" stroke="#5b6573" points="528,-170 528,-198 632,-198 632,-170 528,-170"/>
<text text-anchor="start" x="543.5" y="-181.2" font-family="Arial" font-size="11.00" fill="#17212b">Lambda Errors</text>
<polygon fill="none" stroke="#5b6573" points="632,-170 632,-198 743,-198 743,-170 632,-170"/>
<text text-anchor="start" x="645.5" y="-181.2" font-family="Arial" font-size="11.00" fill="#17212b">&gt;= 1 in 5 minutes</text>
<polygon fill="none" stroke="#5b6573" points="528,-142 528,-170 632,-170 632,-142 528,-142"/>
<text text-anchor="start" x="537.5" y="-153.2" font-family="Arial" font-size="11.00" fill="#17212b">Lambda Throttles</text>
<polygon fill="none" stroke="#5b6573" points="632,-142 632,-170 743,-170 743,-142 632,-142"/>
<text text-anchor="start" x="645.5" y="-153.2" font-family="Arial" font-size="11.00" fill="#17212b">&gt;= 1 in 5 minutes</text>
<polygon fill="none" stroke="#5b6573" points="528,-114 528,-142 632,-142 632,-114 528,-114"/>
<text text-anchor="start" x="536" y="-125.2" font-family="Arial" font-size="11.00" fill="#17212b">API Gateway 5XX</text>
<polygon fill="none" stroke="#5b6573" points="632,-114 632,-142 743,-142 743,-114 632,-114"/>
<text text-anchor="start" x="645.5" y="-125.2" font-family="Arial" font-size="11.00" fill="#17212b">&gt;= 1 in 5 minutes</text>
<polygon fill="none" stroke="#5b6573" points="528,-86 528,-114 632,-114 632,-86 528,-86"/>
<text text-anchor="start" x="554" y="-97.2" font-family="Arial" font-size="11.00" fill="#17212b">RDS CPU</text>
<polygon fill="none" stroke="#5b6573" points="632,-86 632,-114 743,-114 743,-86 632,-86"/>
<text text-anchor="start" x="640" y="-97.2" font-family="Arial" font-size="11.00" fill="#17212b">&gt; 80% for 2 periods</text>
<polygon fill="none" stroke="#5b6573" points="526.5,-85 526.5,-227 743.5,-227 743.5,-85 526.5,-85"/>
</g>
<!-- alarms&#45;&gt;table -->
<g id="edge11" class="edge">
<title>alarms&#45;&gt;table</title>
<path fill="none" stroke="#64748b" stroke-width="1.3" stroke-dasharray="5,2" d="M556,-298.84C556,-298.84 556,-234.83 556,-234.83"/>
<polygon fill="#64748b" stroke="#64748b" stroke-width="1.3" points="558.63,-234.83 556,-227.33 553.38,-234.83 558.63,-234.83"/>
</g>
<!-- email -->
<g id="node10" class="node">
<title>email</title>
<path fill="#e8f1fb" stroke="#5b6573" stroke-width="1.2" d="M492.5,-36C492.5,-36 365.5,-36 365.5,-36 359.5,-36 353.5,-30 353.5,-24 353.5,-24 353.5,-12 353.5,-12 353.5,-6 359.5,0 365.5,0 365.5,0 492.5,0 492.5,0 498.5,0 504.5,-6 504.5,-12 504.5,-12 504.5,-24 504.5,-24 504.5,-30 498.5,-36 492.5,-36"/>
<text text-anchor="middle" x="429" y="-15.2" font-family="Arial" font-size="11.00" fill="#17212b">Confirmed Operator Email</text>
</g>
<!-- sns&#45;&gt;email -->
<g id="edge10" class="edge">
<title>sns&#45;&gt;email</title>
<path fill="none" stroke="#64748b" stroke-width="1.3" d="M429,-136.81C429,-136.81 429,-43.65 429,-43.65"/>
<polygon fill="#64748b" stroke="#64748b" stroke-width="1.3" points="431.63,-43.65 429,-36.15 426.38,-43.65 431.63,-43.65"/>
</g>
</g>
</svg>
